<svg width="73" height="73" viewBox="0 0 73 73" fill="none" xmlns="http://www.w3.org/2000/svg">
<circle cx="36.5" cy="36.5" r="36" stroke="#141414"/>
<path d="M49.5 31.2876V38.7876C49.5 40.6626 48.875 42.2251 47.775 43.3251C46.6875 44.4126 45.125 45.0376 43.25 45.0376V47.7001C43.25 48.7001 42.1375 49.3001 41.3125 48.7501L35.75 45.0376H33.1C33.2 44.6626 33.25 44.2751 33.25 43.8751C33.25 42.6001 32.7625 41.4251 31.9625 40.5376C31.0625 39.5126 29.725 38.8751 28.25 38.8751C26.85 38.8751 25.575 39.4501 24.6625 40.3876C24.55 39.8876 24.5 39.3501 24.5 38.7876V31.2876C24.5 27.5376 27 25.0376 30.75 25.0376H43.25C47 25.0376 49.5 27.5376 49.5 31.2876Z" stroke="#141414" stroke-width="1.5" stroke-miterlimit="10" stroke-linecap="round" stroke-linejoin="round"/>
<path d="M33.25 43.875C33.25 44.275 33.2 44.6625 33.1 45.0375C32.9875 45.5375 32.7875 46.025 32.525 46.45C31.6625 47.9 30.075 48.875 28.25 48.875C26.9625 48.875 25.8 48.3875 24.925 47.5875C24.55 47.2625 24.225 46.875 23.975 46.45C23.5125 45.7 23.25 44.8125 23.25 43.875C23.25 42.525 23.7875 41.2875 24.6625 40.3875C25.575 39.45 26.85 38.875 28.25 38.875C29.725 38.875 31.0625 39.5125 31.9625 40.5375C32.7625 41.425 33.25 42.6 33.25 43.875Z" stroke="#141414" stroke-width="1.5" stroke-miterlimit="10" stroke-linecap="round" stroke-linejoin="round"/>
<path d="M30.1124 43.8496H26.3875" stroke="#141414" stroke-width="1.5" stroke-miterlimit="10" stroke-linecap="round" stroke-linejoin="round"/>
<path d="M28.25 42.0249V45.7624" stroke="#141414" stroke-width="1.5" stroke-miterlimit="10" stroke-linecap="round" stroke-linejoin="round"/>
<path d="M32.625 35.125H41.375" stroke="#141414" stroke-width="1.5" stroke-miterlimit="10" stroke-linecap="round" stroke-linejoin="round"/>
</svg>
