<svg width="73" height="73" viewBox="0 0 73 73" fill="none" xmlns="http://www.w3.org/2000/svg">
<circle cx="36.5" cy="36.5" r="36" stroke="#141414"/>
<path d="M49.4625 44.9125C49.4625 45.3625 49.3625 45.825 49.15 46.275C48.9375 46.725 48.6625 47.15 48.3 47.55C47.6875 48.225 47.0125 48.7125 46.25 49.025C45.5 49.3375 44.6875 49.5 43.8125 49.5C42.5375 49.5 41.175 49.2 39.7375 48.5875C38.3 47.975 36.8625 47.15 35.4375 46.1125C34 45.0625 32.6375 43.9 31.3375 42.6125C30.05 41.3125 28.8875 39.95 27.85 38.525C26.825 37.1 26 35.675 25.4 34.2625C24.8 32.8375 24.5 31.475 24.5 30.175C24.5 29.325 24.65 28.5125 24.95 27.7625C25.25 27 25.725 26.3 26.3875 25.675C27.1875 24.8875 28.0625 24.5 28.9875 24.5C29.3375 24.5 29.6875 24.575 30 24.725C30.325 24.875 30.6125 25.1 30.8375 25.425L33.7375 29.5125C33.9625 29.825 34.125 30.1125 34.2375 30.3875C34.35 30.65 34.4125 30.9125 34.4125 31.15C34.4125 31.45 34.325 31.75 34.15 32.0375C33.9875 32.325 33.75 32.625 33.45 32.925L32.5 33.9125C32.3625 34.05 32.3 34.2125 32.3 34.4125C32.3 34.5125 32.3125 34.6 32.3375 34.7C32.375 34.8 32.4125 34.875 32.4375 34.95C32.6625 35.3625 33.05 35.9 33.6 36.55C34.1625 37.2 34.7625 37.8625 35.4125 38.525C36.0875 39.1875 36.7375 39.8 37.4 40.3625C38.05 40.9125 38.5875 41.2875 39.0125 41.5125C39.075 41.5375 39.15 41.575 39.2375 41.6125C39.3375 41.65 39.4375 41.6625 39.55 41.6625C39.7625 41.6625 39.925 41.5875 40.0625 41.45L41.0125 40.5125C41.325 40.2 41.625 39.9625 41.9125 39.8125C42.2 39.6375 42.4875 39.55 42.8 39.55C43.0375 39.55 43.2875 39.6 43.5625 39.7125C43.8375 39.825 44.125 39.9875 44.4375 40.2L48.575 43.1375C48.9 43.3625 49.125 43.625 49.2625 43.9375C49.3875 44.25 49.4625 44.5625 49.4625 44.9125Z" stroke="#141414" stroke-width="1.5" stroke-miterlimit="10"/>
<path d="M41.375 29.5H47.625" stroke="#141414" stroke-width="1.5" stroke-linecap="round" stroke-linejoin="round"/>
<path d="M44.5 32.625V26.375" stroke="#141414" stroke-width="1.5" stroke-linecap="round" stroke-linejoin="round"/>
</svg>
