<svg width="73" height="73" viewBox="0 0 73 73" fill="none" xmlns="http://www.w3.org/2000/svg">
<circle cx="36.5" cy="36.5" r="36" stroke="#141414"/>
<path d="M32.625 45.75H32C27 45.75 24.5 44.5 24.5 38.25V32C24.5 27 27 24.5 32 24.5H42C47 24.5 49.5 27 49.5 32V38.25C49.5 43.25 47 45.75 42 45.75H41.375C40.9875 45.75 40.6125 45.9375 40.375 46.25L38.5 48.75C37.675 49.85 36.325 49.85 35.5 48.75L33.625 46.25C33.425 45.975 32.9625 45.75 32.625 45.75Z" stroke="#141414" stroke-width="1.5" stroke-miterlimit="10" stroke-linecap="round" stroke-linejoin="round"/>
<path d="M41.9956 35.75H42.0068" stroke="#141414" stroke-width="2" stroke-linecap="round" stroke-linejoin="round"/>
<path d="M36.9944 35.75H37.0056" stroke="#141414" stroke-width="2" stroke-linecap="round" stroke-linejoin="round"/>
<path d="M31.9931 35.75H32.0044" stroke="#141414" stroke-width="2" stroke-linecap="round" stroke-linejoin="round"/>
</svg>
