<svg width="73" height="73" viewBox="0 0 73 73" fill="none" xmlns="http://www.w3.org/2000/svg">
<circle cx="36.5" cy="36.5" r="36" stroke="#141414"/>
<path d="M33.25 38.25C32.425 38.6625 31.7375 39.275 31.225 40.0375C30.9375 40.475 30.9375 41.025 31.225 41.4625C31.7375 42.225 32.425 42.8375 33.25 43.25" stroke="#141414" stroke-width="1.5" stroke-linecap="round" stroke-linejoin="round"/>
<path d="M41.0125 38.25C41.8375 38.6625 42.525 39.275 43.0375 40.0375C43.325 40.475 43.325 41.025 43.0375 41.4625C42.525 42.225 41.8375 42.8375 41.0125 43.25" stroke="#141414" stroke-width="1.5" stroke-linecap="round" stroke-linejoin="round"/>
<path d="M33.25 49.5H40.75C47 49.5 49.5 47 49.5 40.75V33.25C49.5 27 47 24.5 40.75 24.5H33.25C27 24.5 24.5 27 24.5 33.25V40.75C24.5 47 27 49.5 33.25 49.5Z" stroke="#141414" stroke-width="1.5" stroke-linecap="round" stroke-linejoin="round"/>
<path d="M24.7875 32.0125L48.8125 32" stroke="#141414" stroke-width="1.5" stroke-linecap="round" stroke-linejoin="round"/>
</svg>
